<svg version="1.1" id="Layer_1" xmlns="http://www.w3.org/2000/svg" xmlns:xlink="http://www.w3.org/1999/xlink" x="0px" y="0px"
	 width="100%" viewBox="0 0 130 130" enable-background="new 0 0 130 130" xml:space="preserve">
<path fill="#B2C2BA" opacity="1.000000" stroke="none" 
	d="
M71.000000,131.000000 
	C47.333336,131.000000 24.166672,131.000000 1.000006,131.000000 
	C1.000004,87.666672 1.000004,44.333351 1.000002,1.000018 
	C44.333317,1.000012 87.666634,1.000012 130.999969,1.000006 
	C130.999969,44.333313 130.999969,87.666626 130.999985,130.999969 
	C111.166664,131.000000 91.333336,131.000000 71.000000,131.000000 
M41.521168,11.960097 
	C36.036312,10.346316 30.347116,9.743137 25.548008,5.757578 
	C21.773117,2.622610 16.949228,3.519003 12.957636,6.348499 
	C8.942567,9.194634 7.602919,13.289487 8.008591,18.166279 
	C8.348475,22.252209 8.659519,26.392050 8.387124,30.468180 
	C7.388369,45.413647 5.924644,60.330200 5.074794,75.282578 
	C4.624831,83.199303 9.728498,89.805138 16.848772,91.907242 
	C24.742544,94.237717 32.317654,91.413353 36.740772,84.330727 
	C39.028313,80.667755 41.295776,76.962914 43.162640,73.080009 
	C43.986748,71.365952 44.665516,68.531532 43.816887,67.356979 
	C42.955685,66.165039 40.138607,66.110588 38.163502,66.052177 
	C32.813622,65.893951 27.455992,65.997948 21.886162,65.997948 
	C23.887810,52.888901 25.785570,40.460232 27.916298,26.505821 
	C36.034172,30.527925 43.584366,33.547035 50.341904,37.819771 
	C57.105461,42.096310 57.082218,43.966339 53.694153,50.885052 
	C53.402660,51.480309 53.143436,52.091324 52.866714,52.693867 
	C47.959614,63.378845 49.491776,74.942146 48.577053,86.146614 
	C48.487251,87.246620 51.602261,89.673431 53.247467,89.689697 
	C76.900475,89.923515 100.556602,89.822838 124.211777,89.882729 
	C127.116562,89.890083 127.990524,88.753532 127.708313,85.948723 
	C127.008415,78.992714 126.475082,72.019226 125.935883,65.048035 
	C125.606445,60.788818 123.460815,58.793777 119.122528,58.955635 
	C115.198914,59.102016 111.265526,58.986557 107.401482,58.986557 
	C106.215057,50.676327 105.139519,43.102325 104.050789,35.530220 
	C103.261810,30.042843 101.059204,27.757847 95.441620,28.162144 
	C88.869057,28.635172 82.361389,29.968300 75.808403,30.791708 
	C74.564804,30.947969 72.615997,30.946571 72.048866,30.207436 
	C64.452087,20.306667 53.822842,15.518561 41.521168,11.960097 
M122.385689,123.984924 
	C127.767807,118.880508 129.646286,112.768219 126.596275,105.899612 
	C123.666473,99.301765 118.150269,96.558609 110.918373,96.614563 
	C93.618370,96.748421 76.316460,96.620895 59.015808,96.702423 
	C56.728470,96.713203 54.312473,96.962540 52.182362,97.729713 
	C45.284691,100.213951 41.135284,107.411659 42.294270,114.341507 
	C43.601746,122.159218 49.612858,127.426323 58.071911,127.500908 
	C76.036972,127.659294 94.006966,127.705414 111.968513,127.408501 
	C115.253014,127.354202 118.507034,125.456062 122.385689,123.984924 
z"/>
<path fill="#070707" opacity="1.000000" stroke="none" 
	d="
M41.918388,12.041698 
	C53.822842,15.518561 64.452087,20.306667 72.048866,30.207436 
	C72.615997,30.946571 74.564804,30.947969 75.808403,30.791708 
	C82.361389,29.968300 88.869057,28.635172 95.441620,28.162144 
	C101.059204,27.757847 103.261810,30.042843 104.050789,35.530220 
	C105.139519,43.102325 106.215057,50.676327 107.401482,58.986557 
	C111.265526,58.986557 115.198914,59.102016 119.122528,58.955635 
	C123.460815,58.793777 125.606445,60.788818 125.935883,65.048035 
	C126.475082,72.019226 127.008415,78.992714 127.708313,85.948723 
	C127.990524,88.753532 127.116562,89.890083 124.211777,89.882729 
	C100.556602,89.822838 76.900475,89.923515 53.247467,89.689697 
	C51.602261,89.673431 48.487251,87.246620 48.577053,86.146614 
	C49.491776,74.942146 47.959614,63.378845 52.866714,52.693867 
	C53.143436,52.091324 53.402660,51.480309 53.694153,50.885052 
	C57.082218,43.966339 57.105461,42.096310 50.341904,37.819771 
	C43.584366,33.547035 36.034172,30.527925 27.916298,26.505821 
	C25.785570,40.460232 23.887810,52.888901 21.886162,65.997948 
	C27.455992,65.997948 32.813622,65.893951 38.163502,66.052177 
	C40.138607,66.110588 42.955685,66.165039 43.816887,67.356979 
	C44.665516,68.531532 43.986748,71.365952 43.162640,73.080009 
	C41.295776,76.962914 39.028313,80.667755 36.740772,84.330727 
	C32.317654,91.413353 24.742544,94.237717 16.848772,91.907242 
	C9.728498,89.805138 4.624831,83.199303 5.074794,75.282578 
	C5.924644,60.330200 7.388369,45.413647 8.387124,30.468180 
	C8.659519,26.392050 8.348475,22.252209 8.008591,18.166279 
	C7.602919,13.289487 8.942567,9.194634 12.957636,6.348499 
	C16.949228,3.519003 21.773117,2.622610 25.548008,5.757578 
	C30.347116,9.743137 36.036312,10.346316 41.918388,12.041698 
M56.090031,70.737762 
	C56.090031,74.677246 56.090031,78.616737 56.090031,82.592834 
	C77.403618,82.592834 98.752487,82.592834 120.409859,82.592834 
	C119.886307,76.782898 119.400818,71.395432 118.900948,65.848305 
	C116.014832,65.848305 113.695992,65.848808 111.377159,65.848213 
	C102.601562,65.845985 101.018929,64.360558 99.942688,55.732033 
	C99.086227,48.865543 98.001671,42.027508 97.041428,35.337437 
	C74.111153,32.272228 56.400375,48.497131 56.090031,70.737762 
M17.035065,57.618587 
	C18.504082,47.944546 19.973101,38.270504 21.468266,28.424265 
	C19.117508,28.086582 17.219790,27.813976 14.843149,27.472574 
	C14.385313,32.335770 13.885386,36.934624 13.531567,41.544697 
	C12.652720,52.995560 11.708758,64.444130 11.063828,75.908974 
	C10.790465,80.768494 13.540373,84.200645 17.981272,85.863159 
	C22.577312,87.583755 27.075035,86.826111 30.249588,82.939148 
	C32.575867,80.090820 34.156471,76.633476 36.243473,73.157700 
	C33.017052,72.939972 30.514479,72.872131 28.036926,72.586929 
	C15.292049,71.119789 14.441234,73.592567 17.035065,57.618587 
M53.262978,31.177151 
	C56.170963,33.816830 59.078949,36.456509 62.198795,39.288498 
	C63.773232,37.966434 65.343391,36.647961 66.877541,35.359726 
	C61.004379,26.802860 38.816486,15.201353 32.088993,17.282461 
	C31.803011,18.414219 31.465034,19.751734 31.282158,20.475456 
	C38.708691,24.057781 45.682358,27.421659 53.262978,31.177151 
M23.326071,19.946632 
	C25.453163,17.473391 26.002827,14.654487 23.306957,12.591216 
	C21.930830,11.538003 19.021589,11.072982 17.635748,11.840858 
	C16.217533,12.626668 14.877441,15.401429 15.149775,17.030270 
	C15.855961,21.253992 18.923376,21.960579 23.326071,19.946632 
z"/>
<path fill="#0B0C0B" opacity="1.000000" stroke="none" 
	d="
M122.080406,124.196991 
	C118.507034,125.456062 115.253014,127.354202 111.968513,127.408501 
	C94.006966,127.705414 76.036972,127.659294 58.071911,127.500908 
	C49.612858,127.426323 43.601746,122.159218 42.294270,114.341507 
	C41.135284,107.411659 45.284691,100.213951 52.182362,97.729713 
	C54.312473,96.962540 56.728470,96.713203 59.015808,96.702423 
	C76.316460,96.620895 93.618370,96.748421 110.918373,96.614563 
	C118.150269,96.558609 123.666473,99.301765 126.596275,105.899612 
	C129.646286,112.768219 127.767807,118.880508 122.080406,124.196991 
M108.260147,120.683159 
	C109.093140,120.683044 109.926407,120.696854 110.759079,120.680603 
	C117.084854,120.557198 120.932701,117.372009 120.983482,112.224190 
	C121.035820,106.919807 117.373268,103.581062 111.032944,103.553085 
	C93.707314,103.476608 76.381126,103.536903 59.055176,103.518692 
	C55.137634,103.514572 51.818314,104.504799 49.985344,108.374435 
	C47.047043,114.577591 51.234489,120.588028 58.836876,120.644188 
	C74.995789,120.763565 91.156197,120.682205 108.260147,120.683159 
z"/>
<path fill="#B1C1B9" opacity="1.000000" stroke="none" 
	d="
M56.117668,70.269470 
	C56.400375,48.497131 74.111153,32.272228 97.041428,35.337437 
	C98.001671,42.027508 99.086227,48.865543 99.942688,55.732033 
	C101.018929,64.360558 102.601562,65.845985 111.377159,65.848213 
	C113.695992,65.848808 116.014832,65.848305 118.900948,65.848305 
	C119.400818,71.395432 119.886307,76.782898 120.409859,82.592834 
	C98.752487,82.592834 77.403618,82.592834 56.090031,82.592834 
	C56.090031,78.616737 56.090031,74.677246 56.117668,70.269470 
M78.740990,68.097565 
	C83.746552,67.118584 88.752113,66.139610 94.348167,65.045135 
	C93.893410,57.965336 93.522469,50.694687 92.837646,43.453724 
	C92.753616,42.565193 91.021606,41.179970 90.000320,41.131062 
	C75.954948,40.458443 62.083302,56.583149 64.556229,71.471222 
	C69.037689,70.403183 73.482124,69.343971 78.740990,68.097565 
z"/>
<path fill="#ACBCB4" opacity="1.000000" stroke="none" 
	d="
M17.001335,58.061142 
	C14.441234,73.592567 15.292049,71.119789 28.036926,72.586929 
	C30.514479,72.872131 33.017052,72.939972 36.243473,73.157700 
	C34.156471,76.633476 32.575867,80.090820 30.249588,82.939148 
	C27.075035,86.826111 22.577312,87.583755 17.981272,85.863159 
	C13.540373,84.200645 10.790465,80.768494 11.063828,75.908974 
	C11.708758,64.444130 12.652720,52.995560 13.531567,41.544697 
	C13.885386,36.934624 14.385313,32.335770 14.843149,27.472574 
	C17.219790,27.813976 19.117508,28.086582 21.468266,28.424265 
	C19.973101,38.270504 18.504082,47.944546 17.001335,58.061142 
z"/>
<path fill="#ACBBB4" opacity="1.000000" stroke="none" 
	d="
M52.959499,30.981342 
	C45.682358,27.421659 38.708691,24.057781 31.282158,20.475456 
	C31.465034,19.751734 31.803011,18.414219 32.088993,17.282461 
	C38.816486,15.201353 61.004379,26.802860 66.877541,35.359726 
	C65.343391,36.647961 63.773232,37.966434 62.198795,39.288498 
	C59.078949,36.456509 56.170963,33.816830 52.959499,30.981342 
z"/>
<path fill="#ACBBB4" opacity="1.000000" stroke="none" 
	d="
M22.985138,20.164061 
	C18.923376,21.960579 15.855961,21.253992 15.149775,17.030270 
	C14.877441,15.401429 16.217533,12.626668 17.635748,11.840858 
	C19.021589,11.072982 21.930830,11.538003 23.306957,12.591216 
	C26.002827,14.654487 25.453163,17.473391 22.985138,20.164061 
z"/>
<path fill="#ADBCB5" opacity="1.000000" stroke="none" 
	d="
M107.788071,120.683151 
	C91.156197,120.682205 74.995789,120.763565 58.836876,120.644188 
	C51.234489,120.588028 47.047043,114.577591 49.985344,108.374435 
	C51.818314,104.504799 55.137634,103.514572 59.055176,103.518692 
	C76.381126,103.536903 93.707314,103.476608 111.032944,103.553085 
	C117.373268,103.581062 121.035820,106.919807 120.983482,112.224190 
	C120.932701,117.372009 117.084854,120.557198 110.759079,120.680603 
	C109.926407,120.696854 109.093140,120.683044 107.788071,120.683151 
M81.201836,108.788475 
	C78.912239,112.288849 79.512619,115.347015 83.429001,116.687820 
	C84.981682,117.219398 88.153763,116.281845 88.919357,115.009109 
	C89.834106,113.488411 89.739853,109.737480 88.683403,109.023758 
	C86.974976,107.869576 84.124702,108.405579 81.201836,108.788475 
M100.898338,113.819695 
	C102.482475,117.114258 105.232689,118.313911 108.110779,116.248840 
	C109.531464,115.229469 110.674080,112.088066 110.129982,110.546638 
	C109.572052,108.966057 106.795082,107.219765 105.000732,107.231911 
	C101.757240,107.253868 100.187424,109.701668 100.898338,113.819695 
M62.962273,107.134491 
	C61.805126,109.093529 59.518867,111.249252 59.816006,112.954948 
	C60.099548,114.582649 63.184124,116.931122 64.836540,116.779137 
	C66.564728,116.620193 69.184219,113.997711 69.404137,112.205460 
	C69.820862,108.809258 67.367348,106.870323 62.962273,107.134491 
z"/>
<path fill="#060606" opacity="1.000000" stroke="none" 
	d="
M78.333771,68.191162 
	C73.482124,69.343971 69.037689,70.403183 64.556229,71.471222 
	C62.083302,56.583149 75.954948,40.458443 90.000320,41.131062 
	C91.021606,41.179970 92.753616,42.565193 92.837646,43.453724 
	C93.522469,50.694687 93.893410,57.965336 94.348167,65.045135 
	C88.752113,66.139610 83.746552,67.118584 78.333771,68.191162 
M77.268936,53.716217 
	C75.425926,56.304020 73.582916,58.891823 71.739906,61.479626 
	C72.016640,61.834763 72.293365,62.189896 72.570099,62.545029 
	C77.386581,61.369946 82.203064,60.194862 87.178734,58.980942 
	C86.900688,55.332077 86.668579,52.285995 86.352798,48.141937 
	C82.989952,50.138447 80.393005,51.680252 77.268936,53.716217 
z"/>
<path fill="#090A0A" opacity="1.000000" stroke="none" 
	d="
M81.479233,108.508156 
	C84.124702,108.405579 86.974976,107.869576 88.683403,109.023758 
	C89.739853,109.737480 89.834106,113.488411 88.919357,115.009109 
	C88.153763,116.281845 84.981682,117.219398 83.429001,116.687820 
	C79.512619,115.347015 78.912239,112.288849 81.479233,108.508156 
z"/>
<path fill="#0A0B0A" opacity="1.000000" stroke="none" 
	d="
M100.809212,113.463562 
	C100.187424,109.701668 101.757240,107.253868 105.000732,107.231911 
	C106.795082,107.219765 109.572052,108.966057 110.129982,110.546638 
	C110.674080,112.088066 109.531464,115.229469 108.110779,116.248840 
	C105.232689,118.313911 102.482475,117.114258 100.809212,113.463562 
z"/>
<path fill="#070807" opacity="1.000000" stroke="none" 
	d="
M63.344143,107.085915 
	C67.367348,106.870323 69.820862,108.809258 69.404137,112.205460 
	C69.184219,113.997711 66.564728,116.620193 64.836540,116.779137 
	C63.184124,116.931122 60.099548,114.582649 59.816006,112.954948 
	C59.518867,111.249252 61.805126,109.093529 63.344143,107.085915 
z"/>
<path fill="#AAB9B2" opacity="1.000000" stroke="none" 
	d="
M77.532494,53.469135 
	C80.393005,51.680252 82.989952,50.138447 86.352798,48.141937 
	C86.668579,52.285995 86.900688,55.332077 87.178734,58.980942 
	C82.203064,60.194862 77.386581,61.369946 72.570099,62.545029 
	C72.293365,62.189896 72.016640,61.834763 71.739906,61.479626 
	C73.582916,58.891823 75.425926,56.304020 77.532494,53.469135 
z"/>
</svg>